HIERARCHY
ROOT hip
{
	OFFSET 0.000000 0.000000 0.000000
	CHANNELS 6 Xposition Yposition Zposition Zrotation Yrotation Xrotation 
	JOINT lhipjoint
	{
		OFFSET 0.000000 0.000000 0.000000
		CHANNELS 3 Zrotation Yrotation Xrotation
		JOINT lfemur
		{
			OFFSET 1.363060 -1.794630 0.839290
			CHANNELS 3 Zrotation Yrotation Xrotation
			JOINT ltibia
			{
				OFFSET 2.448110 -6.726130 0.000000
				CHANNELS 3 Zrotation Yrotation Xrotation
				JOINT lfoot
				{
					OFFSET 2.562200 -7.039590 0.000000
					CHANNELS 3 Zrotation Yrotation Xrotation
					JOINT ltoes
					{
						OFFSET 0.157640 -0.433110 2.322550
						CHANNELS 3 Zrotation Yrotation Xrotation
						End Site
						{
							OFFSET 0.000000 0.000000 0.000000
						}
					}
				}
			}
		}
	}
	JOINT rhipjoint
	{
		OFFSET 0.000000 0.000000 0.000000
		CHANNELS 3 Zrotation Yrotation Xrotation
		JOINT rfemur
		{
			OFFSET -1.305520 -1.794630 0.839290
			CHANNELS 3 Zrotation Yrotation Xrotation
			JOINT rtibia
			{
				OFFSET -2.542530 -6.985550 0.000000
				CHANNELS 3 Zrotation Yrotation Xrotation
				JOINT rfoot
				{
					OFFSET -2.568260 -7.056230 0.000000
					CHANNELS 3 Zrotation Yrotation Xrotation
					JOINT rtoes
					{
						OFFSET -0.164730 -0.452590 2.363150
						CHANNELS 3 Zrotation Yrotation Xrotation
						End Site
						{
							OFFSET 0.000000 0.000000 0.000000
						}
					}
				}
			}
		}
	}
	JOINT lowerback
	{
		OFFSET 0.000000 0.000000 0.000000
		CHANNELS 3 Zrotation Yrotation Xrotation
		JOINT upperback
		{
			OFFSET 0.028270 2.035590 -0.193380
			CHANNELS 3 Zrotation Yrotation Xrotation
			JOINT thorax
			{
				OFFSET 0.056720 2.048850 -0.042750
				CHANNELS 3 Zrotation Yrotation Xrotation
				JOINT lowerneck
				{
					OFFSET 0.000000 0.000000 0.000000
					CHANNELS 3 Zrotation Yrotation Xrotation
					JOINT upperneck
					{
						OFFSET -0.054170 1.746240 0.172020
						CHANNELS 3 Zrotation Yrotation Xrotation
						JOINT head
						{
							OFFSET 0.104070 1.761360 -0.123970
							CHANNELS 3 Zrotation Yrotation Xrotation
							End Site
							{
								OFFSET 0.000000 0.000000 0.000000
							}
						}
					}
				}
				JOINT lclavicle
				{
					OFFSET 0.000000 0.000000 0.000000
					CHANNELS 3 Zrotation Yrotation Xrotation
					JOINT lhumerus
					{
						OFFSET 3.362410 1.200890 -0.311210
						CHANNELS 3 Zrotation Yrotation Xrotation
						JOINT lradius
						{
							OFFSET 4.983000 -0.000000 -0.000000
							CHANNELS 3 Zrotation Yrotation Xrotation
							JOINT lwrist
							{
								OFFSET 3.483560 -0.000000 -0.000000
								CHANNELS 3 Zrotation Yrotation Xrotation
								JOINT lhand
								{
									OFFSET 0.000000 0.000000 0.000000
									CHANNELS 3 Zrotation Yrotation Xrotation
									JOINT lfingers
									{
										OFFSET 0.715260 -0.000000 -0.000000
										CHANNELS 3 Zrotation Yrotation Xrotation
										End Site
										{
											OFFSET 0.000000 0.000000 0.000000
										}
									}
								}
								JOINT lthumb
								{
									OFFSET 0.000000 0.000000 0.000000
									CHANNELS 3 Zrotation Yrotation Xrotation
									End Site
									{
										OFFSET 0.000000 0.000000 0.000000
									}
								}
							}
						}
					}
				}
				JOINT rclavicle
				{
					OFFSET 0.000000 0.000000 0.000000
					CHANNELS 3 Zrotation Yrotation Xrotation
					JOINT rhumerus
					{
						OFFSET -3.136600 1.374050 -0.404650
						CHANNELS 3 Zrotation Yrotation Xrotation
						JOINT rradius
						{
							OFFSET -5.241900 -0.000000 -0.000000
							CHANNELS 3 Zrotation Yrotation Xrotation
							JOINT rwrist
							{
								OFFSET -3.444170 -0.000000 -0.000000
								CHANNELS 3 Zrotation Yrotation Xrotation
								JOINT rhand
								{
									OFFSET 0.000000 0.000000 0.000000
									CHANNELS 3 Zrotation Yrotation Xrotation
									JOINT rfingers
									{
										OFFSET -0.622530 -0.000000 -0.000000
										CHANNELS 3 Zrotation Yrotation Xrotation
										End Site
										{
											OFFSET 0.000000 0.000000 0.000000
										}
									}
								}
								JOINT rthumb
								{
									OFFSET 0.000000 0.000000 0.000000
									CHANNELS 3 Zrotation Yrotation Xrotation
									End Site
									{
										OFFSET 0.000000 0.000000 0.000000
									}
								}
							}
						}
					}
				}
			}
		}
	}
}
MOTION
Frames: 10
Frame Time: 0.008333
-29.277083 17.711659 6.116925 -4.738909 10.697270 3.930952 4.669045 3.291346 0.185644 -15.409083 -10.154627 -10.270366 2.396338 8.948832 28.965086 2.656745 -8.865224 -0.853309 0.684600 -5.289900 -14.737300 -7.301475 -4.016991 -0.300788 35.702655 12.032191 -7.562398 -3.855084 -8.343042 27.384685 -0.824841 5.976609 -8.736839 -0.109100 2.130100 -5.865300 7.110435 0.945818 -4.126928 1.104580 0.250590 -3.889136 -1.065407 0.603289 -0.439563 -0.727086 3.593057 2.868115 2.767787 4.791886 17.356215 -3.133900 3.495100 -2.222800 5.075590 -8.117437 4.060746 -78.780093 -5.304476 56.144839 10.631531 -29.108947 -2.309033 1.165994 2.170409 -11.752058 18.975169 -10.914962 -4.052100 -7.125000 0.000000 0.000000 -6.825400 16.388300 4.655800 -0.185277 10.525248 5.386901 74.452695 -3.818727 53.048907 -9.462321 24.593859 -2.125914 -0.892321 -3.308551 -4.597527 -20.242721 3.685159 -2.489000 7.125000 0.000000 0.000000 5.578600 -22.387300 3.047500 
-29.274955 17.711756 6.115184 -4.705623 10.813771 3.907545 4.664444 3.294702 0.187082 -15.407872 -9.936765 -10.383862 2.388066 8.948847 28.962114 2.710129 -9.175988 -0.666069 0.676700 -5.259800 -14.651100 -7.301672 -4.015872 -0.304564 35.669599 12.004484 -7.544590 -3.858970 -8.345000 27.393715 -0.822146 5.883896 -8.806387 -0.112000 2.157800 -5.941900 7.172795 0.914166 -4.067319 1.111098 0.211902 -3.892697 -1.071808 0.580072 -0.491909 -0.696462 3.781956 2.920103 2.666155 5.074103 17.327402 -3.223800 3.648000 -2.220800 5.089941 -8.117799 4.059332 -78.838027 -5.186614 56.300777 10.586695 -29.063070 -2.297178 1.170131 2.167045 -11.890821 18.961057 -10.963241 -4.059000 -7.125000 0.000000 0.000000 -6.841200 16.347900 4.672800 -0.179683 10.558892 5.400085 74.424744 -3.818448 52.934673 -9.438776 24.576922 -2.130668 -0.902568 -3.307130 -4.498385 -20.305512 3.718787 -2.509400 7.125000 0.000000 0.000000 5.535500 -22.347200 3.028800 
-29.273214 17.711272 6.113249 -4.690241 10.936809 3.890489 4.659074 3.297487 0.187130 -15.376605 -9.676694 -10.536673 2.379941 8.953278 28.969013 2.774059 -9.554201 -0.443859 0.665100 -5.215500 -14.524200 -7.301965 -4.016251 -0.306662 35.653679 11.978223 -7.543014 -3.861753 -8.346589 27.400603 -0.818146 5.798011 -8.844582 -0.113100 2.168600 -5.971900 7.257223 0.888305 -4.008804 1.118081 0.178283 -3.894321 -1.078056 0.560618 -0.525083 -0.693365 3.978302 2.929948 2.577080 5.361709 17.291207 -3.294300 3.800800 -2.209900 5.099737 -8.116610 4.055206 -78.884756 -5.094462 56.519973 10.550642 -29.016799 -2.283638 1.172955 2.162652 -12.050995 18.927183 -11.014976 -4.061700 -7.125000 0.000000 0.000000 -6.870200 16.307700 4.698900 -0.175605 10.584202 5.411529 74.396879 -3.815829 52.782503 -9.433780 24.579189 -2.137721 -0.908499 -3.308247 -4.388020 -20.358303 3.724355 -2.520400 7.125000 0.000000 0.000000 5.496400 -22.334100 3.008900 
-29.271472 17.711272 6.111411 -4.655362 11.061633 3.867098 4.654146 3.301154 0.188264 -15.368146 -9.398038 -10.684266 2.371820 8.956703 28.976125 2.836561 -9.935824 -0.216383 0.655100 -5.177100 -14.414200 -7.301379 -4.016122 -0.308467 35.617673 11.951278 -7.534611 -3.866412 -8.350329 27.414459 -0.813947 5.696883 -8.901893 -0.110900 2.147200 -5.912500 7.327385 0.855695 -3.935289 1.123622 0.139672 -3.899266 -1.088559 0.537655 -0.591972 -0.682303 4.204473 2.986893 2.497178 5.681697 17.255298 -3.367900 3.970700 -2.207900 5.111736 -8.127540 4.052560 -78.952597 -4.969407 56.682126 10.480485 -28.943923 -2.268011 1.179521 2.157620 -12.182964 18.930131 -11.065873 -4.072500 -7.125000 0.000000 0.000000 -6.875600 16.265300 4.709000 -0.175763 10.617564 5.424548 74.374828 -3.833217 52.605286 -9.415289 24.575218 -2.140412 -0.917837 -3.305007 -4.221292 -20.371088 3.756990 -2.533500 7.125000 0.000000 0.000000 5.486600 -22.299200 3.007900 
-29.269925 17.710789 6.108800 -4.626511 11.190991 3.853406 4.649949 3.304315 0.188147 -15.347826 -9.090321 -10.872265 2.363819 8.964619 28.994937 2.902442 -10.357414 0.064869 0.637900 -5.109900 -14.222400 -7.297853 -4.020047 -0.312044 35.575046 11.872174 -7.562932 -3.869699 -8.354415 27.426404 -0.811286 5.662115 -8.908161 -0.108100 2.119800 -5.837000 7.424683 0.840342 -3.867767 1.125015 0.120881 -3.899921 -1.129801 0.525417 -0.622130 -0.698112 4.450668 2.980814 2.471944 6.011970 17.230049 -3.394500 4.141400 -2.186300 5.108373 -8.136813 4.050050 -78.963907 -4.873740 56.974888 10.453297 -28.880649 -2.255149 1.185386 2.149354 -12.432522 18.913905 -11.180624 -4.095400 -7.125000 0.000000 0.000000 -6.896600 16.164900 4.738800 -0.185342 10.632655 5.430939 74.366850 -3.821656 52.364802 -9.378909 24.574763 -2.143990 -0.928756 -3.302750 -4.068495 -20.397324 3.793720 -2.550000 7.125000 0.000000 0.000000 5.468600 -22.258300 3.003000 
-29.268087 17.710305 6.106865 -4.593977 11.317451 3.827024 4.644888 3.308013 0.189873 -15.336374 -8.825172 -11.019625 2.357970 8.973077 29.018289 2.964993 -10.762793 0.302443 0.624600 -5.057300 -14.072200 -7.294566 -4.024112 -0.318507 35.528802 11.763930 -7.578360 -3.873749 -8.359783 27.443584 -0.808590 5.633938 -8.906780 -0.106200 2.101100 -5.785200 7.508695 0.809474 -3.793649 1.129882 0.082766 -3.902459 -1.135174 0.504883 -0.673831 -0.736547 4.716138 3.029134 2.428653 6.363811 17.186589 -3.431500 4.323100 -2.190600 5.116026 -8.154109 4.049356 -79.068697 -4.728714 57.004658 10.332330 -28.778835 -2.237091 1.201486 2.134888 -12.434277 18.942746 -11.301179 -4.131000 -7.125000 0.000000 0.000000 -6.887300 16.055500 4.748700 -0.193107 10.651721 5.443318 74.314678 -3.820758 52.340477 -9.370821 24.567599 -2.148901 -0.935200 -3.302989 -4.067295 -20.453259 3.831003 -2.570700 7.125000 0.000000 0.000000 5.431900 -22.214700 2.988100 
-29.266829 17.709434 6.104447 -4.575664 11.452213 3.812350 4.639829 3.310916 0.190389 -15.303893 -8.525773 -11.215827 2.351602 8.985310 29.049391 3.029682 -11.204388 0.590118 0.615500 -5.021200 -13.969200 -7.292672 -4.027280 -0.319533 35.502648 11.707547 -7.606225 -3.878829 -8.366747 27.466262 -0.803932 5.557680 -8.929573 -0.102700 2.066300 -5.688900 7.614630 0.789740 -3.726053 1.133995 0.057660 -3.904988 -1.152576 0.490034 -0.718908 -0.769059 4.969833 3.053487 2.375954 6.707648 17.147145 -3.471000 4.501300 -2.184300 5.119171 -8.170431 4.048792 -79.148384 -4.554159 57.033307 10.252180 -28.708613 -2.222038 1.212630 2.119769 -12.366329 18.925365 -11.402184 -4.151100 -7.125000 0.000000 0.000000 -6.904600 15.968500 4.773900 -0.197472 10.675108 5.455272 74.272478 -3.841176 52.246079 -9.384366 24.585744 -2.156691 -0.936846 -3.306557 -4.072068 -20.489922 3.846754 -2.582800 7.125000 0.000000 0.000000 5.406300 -22.191400 2.976800 
-29.265185 17.708564 6.101641 -4.545459 11.604797 3.785000 4.634514 3.314019 0.192193 -15.282725 -8.233461 -11.398450 2.346506 9.000115 29.092672 3.089773 -11.643875 0.916801 0.590500 -4.919900 -13.680300 -7.289158 -4.031250 -0.324980 35.459284 11.606495 -7.628550 -3.883926 -8.373670 27.488298 -0.800809 5.514726 -8.937939 -0.096300 2.000800 -5.508000 7.714556 0.750830 -3.638876 1.139149 0.009916 -3.907523 -1.166227 0.464241 -0.769583 -0.821445 5.257018 3.076301 2.339430 7.087085 17.110759 -3.496000 4.696500 -2.174100 5.125925 -8.191938 4.047936 -79.281130 -4.374041 56.844907 10.111312 -28.610654 -2.199254 1.226377 2.096492 -12.135431 18.838384 -11.513810 -4.155700 -7.125000 0.000000 0.000000 -6.967100 15.882400 4.830800 -0.209437 10.696044 5.466373 74.225388 -3.849944 52.129005 -9.367569 24.583877 -2.162769 -0.949413 -3.303964 -4.025382 -20.543487 3.931690 -2.618700 7.125000 0.000000 0.000000 5.373700 -22.100000 2.969900 
-29.263734 17.707790 6.099610 -4.513507 11.744630 3.769996 4.629293 3.317994 0.194401 -15.262164 -7.923008 -11.609294 2.343274 9.020394 29.150619 3.152027 -12.114637 1.249576 0.574400 -4.853400 -13.490800 -7.285142 -4.036845 -0.330015 35.408074 11.485791 -7.676235 -3.889429 -8.381816 27.513308 -0.799079 5.492459 -8.946269 -0.096700 2.005800 -5.521600 7.806772 0.726163 -3.567306 1.142769 -0.019781 -3.910181 -1.179167 0.447058 -0.817535 -0.860351 5.531460 3.109354 2.292685 7.453971 17.066989 -3.532200 4.885700 -2.171900 5.127503 -8.211821 4.049645 -79.374549 -4.163054 56.806716 10.034385 -28.550777 -2.185401 1.233258 2.085028 -12.041121 18.814097 -11.558307 -4.159300 -7.125000 0.000000 0.000000 -6.985400 15.849600 4.848700 -0.214995 10.718636 5.478242 74.161458 -3.856900 52.172723 -9.376772 24.585564 -2.172975 -0.954995 -3.308470 -4.156456 -20.644904 3.988679 -2.653500 7.125000 0.000000 0.000000 5.308600 -22.029800 2.942200 
-29.262380 17.707306 6.096708 -4.479770 11.898850 3.741025 4.622577 3.321983 0.198061 -15.243256 -7.583880 -11.832023 2.342007 9.043938 29.221038 3.210211 -12.582834 1.601728 0.567500 -4.824600 -13.408900 -7.281140 -4.043082 -0.335123 35.352178 11.353301 -7.715481 -3.895279 -8.391271 27.543412 -0.797566 5.494776 -8.929152 -0.091800 1.954200 -5.379200 7.900159 0.692276 -3.463436 1.148501 -0.058341 -3.915962 -1.182020 0.426181 -0.902379 -0.916470 5.831019 3.186386 2.259381 7.841283 17.015886 -3.560800 5.084300 -2.184200 5.124334 -8.248950 4.052860 -79.450233 -3.926542 56.797396 9.975314 -28.500607 -2.170224 1.235435 2.074857 -11.976982 18.733484 -11.583143 -4.143300 -7.125000 0.000000 0.000000 -7.039800 15.841700 4.888200 -0.223648 10.748308 5.492132 74.115077 -3.909484 52.060285 -9.365552 24.581349 -2.182345 -0.971358 -3.306217 -4.109322 -20.729006 4.099344 -2.703300 7.125000 0.000000 0.000000 5.256400 -21.908300 2.927500 
